<?xml version="1.0" encoding="utf-8"?>
<!-- Generator: Adobe Illustrator 18.0.0, SVG Export Plug-In . SVG Version: 6.00 Build 0)  -->
<!DOCTYPE svg PUBLIC "-//W3C//DTD SVG 1.1//EN" "http://www.w3.org/Graphics/SVG/1.1/DTD/svg11.dtd">
<svg version="1.1" id="圖層_1" xmlns="http://www.w3.org/2000/svg" xmlns:xlink="http://www.w3.org/1999/xlink" x="0px" y="0px"
	 viewBox="0 0 150.7 158.1" enable-background="new 0 0 150.7 158.1" xml:space="preserve">
<g>
	<circle fill="#FFF100" cx="75.3" cy="75.3" r="75.3"/>
	<g>
		<g>
			<path fill="#020002" stroke="#FFF100" stroke-miterlimit="10" d="M68.7,74c-0.9,1.2-43.6,64.8-13.7,77.9s49.9,2.1,51.5-3.2
				c3.8-12.2-10.5-68.1-11.6-72.9C93.8,70.9,73.3,67.8,68.7,74z"/>
			<path fill="#020002" stroke="#FFF100" stroke-miterlimit="10" d="M68.8,82.4c0,0-2.8,6.4-2.8,9.6"/>
			<path fill="#020002" stroke="#FFF100" stroke-miterlimit="10" d="M61.8,94c0,0-2.5,5.3-2.5,8"/>
			<path fill="#020002" stroke="#FFF100" stroke-miterlimit="10" d="M53.8,110.1c0,0-1.9,4.2-1.9,7.1"/>
			<path fill="#020002" stroke="#FFF100" stroke-miterlimit="10" d="M62.8,137.3c0,0-1.9,4.2-1.9,7.1"/>
			<path fill="#020002" stroke="#FFF100" stroke-miterlimit="10" d="M70.4,128.5c0,0-1.9,4.2-1.9,7.1"/>
			<path fill="#020002" stroke="#FFF100" stroke-miterlimit="10" d="M77.4,124.9c0,0-1.9,4.2-1.9,7.1"/>
			<path fill="#020002" stroke="#FFF100" stroke-miterlimit="10" d="M60.6,108.1c0,0-1.3,7.5-1.3,9.1"/>
			<path fill="#020002" stroke="#FFF100" stroke-miterlimit="10" d="M70.2,98c0,0-2,5.9-1.4,7.2"/>
			<path fill="#020002" stroke="#FFF100" stroke-miterlimit="10" d="M68.2,114.9c0,0-2,5.9-1.4,7.2"/>
			<path fill="#020002" stroke="#FFF100" stroke-miterlimit="10" d="M90.1,83.5c0,0-2,5.9-1.4,7.2"/>
			<path fill="#020002" stroke="#FFF100" stroke-miterlimit="10" d="M90.1,101.6c0,0-2,5.9-1.4,7.2"/>
			<path fill="#020002" stroke="#FFF100" stroke-miterlimit="10" d="M86.6,119.1c0,0-2,5.9-1.4,7.2"/>
			<path fill="#020002" stroke="#FFF100" stroke-miterlimit="10" d="M84.4,131.4c0,0-2,5.9-1.4,7.2"/>
			<path fill="#020002" stroke="#FFF100" stroke-miterlimit="10" d="M60.7,124.8c0,0-2,5.9-1.4,7.2"/>
			<path fill="#020002" stroke="#FFF100" stroke-miterlimit="10" d="M53.6,122.7c0,0-2,5.9-1.4,7.2"/>
			<path fill="#020002" stroke="#FFF100" stroke-miterlimit="10" d="M54.5,135c0,0-2,5.9-1.4,7.2"/>
			<path fill="#020002" stroke="#FFF100" stroke-miterlimit="10" d="M74,82.4c-0.3,0.7-1.3,7.7-1.3,7.7"/>
			<path fill="#020002" stroke="#FFF100" stroke-miterlimit="10" d="M76.5,92.9c-0.3,0.7-1.3,7.7-1.3,7.7"/>
			<path fill="#020002" stroke="#FFF100" stroke-miterlimit="10" d="M81.1,82.4c-0.3,0.7-1.3,7.7-1.3,7.7"/>
			<path fill="#020002" stroke="#FFF100" stroke-miterlimit="10" d="M85,94.2c-0.3,0.7-1.3,7.7-1.3,7.7"/>
			<path fill="#020002" stroke="#FFF100" stroke-miterlimit="10" d="M82.9,113.3c-0.3,0.7-1.3,7.7-1.3,7.7"/>
			<path fill="#020002" stroke="#FFF100" stroke-miterlimit="10" d="M76.5,137c-0.3,0.7-1.3,7.7-1.3,7.7"/>
			<path fill="#020002" stroke="#FFF100" stroke-miterlimit="10" d="M77.1,109.8c-0.3,0.7-1.3,7.7-1.3,7.7"/>
			<path fill="#020002" stroke="#FFF100" stroke-miterlimit="10" d="M92.9,115.2c-0.3,0.7-1.3,7.7-1.3,7.7"/>
			<path fill="#020002" stroke="#FFF100" stroke-miterlimit="10" d="M97.5,101.4c-0.3,0.7-1.3,7.7-1.3,7.7"/>
			<path fill="#020002" stroke="#FFF100" stroke-miterlimit="10" d="M95.6,91.5c-0.3,0.7-1.3,7.7-1.3,7.7"/>
			<path fill="#020002" stroke="#FFF100" stroke-miterlimit="10" d="M95,128.2c-0.3,0.7-1.3,7.7-1.3,7.7"/>
			<path fill="#020002" stroke="#FFF100" stroke-miterlimit="10" d="M89.3,137c-0.3,0.7-1.3,7.7-1.3,7.7"/>
			<path fill="#020002" stroke="#FFF100" stroke-miterlimit="10" d="M99.9,113.6c-0.3,0.7-1.3,7.7-1.3,7.7"/>
			<path fill="#020002" stroke="#FFF100" stroke-miterlimit="10" d="M102.1,132c-0.3,0.7-1.3,7.7-1.3,7.7"/>
			<path fill="#020002" stroke="#FFF100" stroke-miterlimit="10" d="M71.4,145.2c0,0-1.9,4.2-1.9,7.1"/>
			<path fill="#020002" stroke="#FFF100" stroke-miterlimit="10" d="M81.8,145.1c0,0-2,5.9-1.4,7.2"/>
			<path fill="#020002" stroke="#FFF100" stroke-miterlimit="10" d="M94.3,144.9c-0.3,0.7-1.3,7.7-1.3,7.7"/>
		</g>
		<g>
			<g>
				<path fill="#020002" stroke="#FFF100" stroke-miterlimit="10" d="M56.5,43.2c0,0-3.5-17.1,0-16.4s9.1,4.7,11.8,8.2
					C71.1,38.4,56.5,43.2,56.5,43.2z"/>
				<path fill="#020002" stroke="#FFF100" stroke-miterlimit="10" d="M58.1,41.5c0,0-2-11.3,0-9.8s8.1,4,8.3,5.8
					C66.7,39.3,58.1,41.5,58.1,41.5z"/>
			</g>
			<g>
				<path fill="#020002" stroke="#FFF100" stroke-miterlimit="10" d="M102.1,44.8c0,0,3.5-17.1,0-16.4c-3.5,0.7-9.1,4.7-11.8,8.2
					C87.6,40.1,102.1,44.8,102.1,44.8z"/>
				<path fill="#020002" stroke="#FFF100" stroke-miterlimit="10" d="M100.6,43.2c0,0,2-11.3,0-9.8c-2,1.5-8.1,4-8.3,5.8
					C92,40.9,100.6,43.2,100.6,43.2z"/>
			</g>
			<path fill="#020002" stroke="#FFF100" stroke-miterlimit="10" d="M56.5,43.2c0,0-8.4,12.2,4,24.5s25.6,10.9,34.4,8.1
				s18.4-23.1,4.9-35C91,33.1,73.6,26.2,56.5,43.2z"/>
			<g>
				<path fill="#020002" stroke="#FFF100" stroke-miterlimit="10" d="M61.8,50.7c0,0,5.7-11.3,14,0C75.8,50.7,68.8,59.5,61.8,50.7z"
					/>
				<ellipse fill="#020002" stroke="#FFF100" stroke-miterlimit="10" cx="68.8" cy="49.7" rx="2.8" ry="4.4"/>
			</g>
			<g>
				<path fill="#020002" stroke="#FFF100" stroke-miterlimit="10" d="M85.2,50.3c0,0,5.7-11.3,14,0C99.2,50.3,92.1,59.1,85.2,50.3z"
					/>
				<ellipse fill="#020002" stroke="#FFF100" stroke-miterlimit="10" cx="92.2" cy="49.2" rx="2.8" ry="4.4"/>
			</g>
			<path fill="#020002" stroke="#FFF100" stroke-miterlimit="10" d="M79.5,59.8c0,0,2.7-2.2,4.8-0.6c0,0-0.7,1.8-2.4,1.7
				C80.2,60.8,79.5,59.8,79.5,59.8z"/>
			<path fill="#020002" stroke="#FFF100" stroke-miterlimit="10" d="M81.9,60.9c0,0,0.7,2.9,0,7c0,0-1.7,3.2-3.4,4"/>
			<path fill="#020002" stroke="#FFF100" stroke-miterlimit="10" d="M85.8,71.9c0,0-3.4-2.4-3.9-4"/>
			<path fill="#020002" stroke="#FFF100" stroke-miterlimit="10" d="M78.5,70.7"/>
		</g>
		<g>
			<g>
				<g>
					<path fill="#020002" d="M47,130.2c-3.6-1-3.9-3.8-4.7-7.1c-1.3-5.4-0.4-10.5,1.2-15.7c3.2-10.2,9.8-18.8,10.8-29.7
						c0.8-8.6-5.7-16.1-13.9-17.6c-8.6-1.6-16.7,4.7-18.5,13c-1.4,6.3,8.2,8.9,9.6,2.7c2-8.8,12.8-6.7,12.8,1.9
						c0,4.5-2.6,9.2-4.5,13.1c-1.9,4.1-3.8,8.1-5.4,12.3c-4.5,11.6-5.1,32.7,9.9,36.7C50.6,141.5,53.3,131.9,47,130.2L47,130.2z"/>
				</g>
			</g>
			<path fill="none" stroke="#FFF100" stroke-miterlimit="10" d="M25.9,74c0,0,0.7-3.5,2.6-4.2"/>
			<path fill="none" stroke="#FFF100" stroke-miterlimit="10" d="M30.7,67.5c0.5-0.4,2.3-2.1,4.6-2.4"/>
			<path fill="none" stroke="#FFF100" stroke-miterlimit="10" d="M40.3,65.1c0,0,2.4-0.6,4,2.1"/>
			<path fill="none" stroke="#FFF100" stroke-miterlimit="10" d="M48.3,71.6c0,0,1.5,1.5,1.1,5.3"/>
			<path fill="none" stroke="#FFF100" stroke-miterlimit="10" d="M47.9,84.6c0,0-1.5,3.9-2.2,5.5"/>
			<path fill="none" stroke="#FFF100" stroke-miterlimit="10" d="M43.8,94.2c0,0-1.8,3.8-2.3,5"/>
			<line fill="none" stroke="#FFF100" stroke-miterlimit="10" x1="49.4" y1="80" x2="48.9" y2="82.4"/>
			<line fill="none" stroke="#FFF100" stroke-miterlimit="10" x1="45.7" y1="68.1" x2="47.8" y2="70.5"/>
			<path fill="none" stroke="#FFF100" stroke-miterlimit="10" d="M42.7,132.8c0,0,3.3,2.4,3,2.2"/>
			<path fill="none" stroke="#FFF100" stroke-miterlimit="10" d="M38.1,124.9c0,0,0,2,1.6,4.2"/>
			<path fill="none" stroke="#FFF100" stroke-miterlimit="10" d="M36.7,115.2c0,0-0.2,3.4,0,4.9"/>
			<path fill="none" stroke="#FFF100" stroke-miterlimit="10" d="M39.7,103.5c0,0-1,3.7-1.6,5.6"/>
		</g>
	</g>
	<polygon fill="#020002" stroke="#FFF100" stroke-miterlimit="10" points="106.5,80 96.8,106.1 120.3,95.4 	"/>
	<polygon fill="#020002" stroke="#FFF100" stroke-miterlimit="10" points="111.9,77.7 114.7,58.6 122.8,64.8 	"/>
	<polygon fill="#020002" stroke="#FFF100" stroke-miterlimit="10" points="120.3,80 133.2,65.1 139.8,74 	"/>
	<polygon fill="#020002" stroke="#FFF100" stroke-miterlimit="10" points="124.5,87.8 139.8,84.6 139.8,92 	"/>
</g>
</svg>
